<?xml version="1.0" standalone="no"?>
<!DOCTYPE svg PUBLIC "-//W3C//DTD SVG 20010904//EN"
 "http://www.w3.org/TR/2001/REC-SVG-20010904/DTD/svg10.dtd">
<svg version="1.0" xmlns="http://www.w3.org/2000/svg"
 width="1255.000000pt" height="429.000000pt" viewBox="0 0 1255.000000 429.000000"
 preserveAspectRatio="xMidYMid meet">

<g transform="translate(0.000000,429.000000) scale(0.100000,-0.100000)"
fill="#FFFFFF" stroke="none">
<path d="M1850 3939 c-41 -4 -115 -19 -163 -33 -168 -50 -281 -113 -398 -224
-80 -75 -127 -140 -194 -270 -45 -87 -53 -97 -80 -100 -16 -1 -74 -16 -127
-33 -158 -50 -275 -130 -364 -248 -209 -279 -207 -628 5 -902 115 -148 337
-264 521 -271 79 -3 112 14 130 66 25 77 -34 136 -135 136 -62 0 -185 42 -252
86 -302 201 -301 678 3 879 73 49 187 85 265 85 106 0 140 25 174 130 37 117
85 191 184 290 75 75 113 104 172 133 263 129 586 96 804 -81 104 -84 196
-220 241 -354 33 -99 47 -109 167 -119 152 -11 264 -63 352 -161 193 -215 193
-511 0 -726 -84 -94 -196 -147 -337 -162 -43 -4 -89 -15 -102 -23 -60 -40 -51
-144 16 -172 63 -26 240 10 368 75 128 64 236 172 314 314 88 159 105 368 44
560 -22 71 -106 207 -170 278 -94 103 -257 184 -449 223 -20 4 -32 17 -49 57
-34 80 -125 214 -194 286 -189 198 -474 305 -746 281z"/>
<path d="M10740 1905 l0 -865 100 0 100 0 0 865 0 865 -100 0 -100 0 0 -865z"/>
<path d="M10160 2430 c0 -181 -3 -330 -6 -330 -3 0 -24 15 -47 34 -99 81 -228
116 -353 96 -279 -45 -435 -263 -435 -612 0 -242 47 -385 160 -492 91 -85 225
-126 347 -106 85 14 194 71 270 142 35 34 66 59 68 57 2 -2 8 -39 14 -83 6
-43 15 -83 21 -89 6 -6 43 -13 81 -15 l70 -4 0 866 0 866 -95 0 -95 0 0 -330z
m-143 -375 c32 -14 77 -45 101 -68 l42 -41 0 -295 0 -295 -62 -61 c-107 -104
-227 -144 -344 -116 -95 23 -179 105 -209 204 -23 74 -34 224 -24 327 18 198
99 316 252 366 63 21 174 11 244 -21z"/>
<path d="M5290 1880 l0 -842 368 4 c405 5 419 7 559 73 89 42 155 106 194 188
80 171 59 356 -52 465 -50 49 -158 107 -218 117 -23 4 -41 11 -41 15 0 5 33
24 73 44 154 74 218 165 225 322 9 185 -53 296 -209 379 -118 62 -155 67 -546
72 l-353 5 0 -842z m683 656 c75 -18 156 -73 187 -128 18 -32 25 -62 28 -123
6 -117 -8 -159 -77 -226 -87 -86 -112 -92 -383 -97 l-228 -4 0 296 0 296 208
0 c140 0 226 -5 265 -14z m72 -749 c83 -27 137 -67 170 -128 27 -49 30 -63 30
-144 0 -150 -48 -222 -186 -278 -49 -20 -75 -22 -306 -25 l-253 -4 0 302 0
302 248 -4 c192 -4 258 -8 297 -21z"/>
<path d="M8565 2226 c-72 -18 -146 -59 -220 -121 -35 -30 -66 -51 -69 -47 -2
4 -8 36 -12 70 -4 35 -13 70 -21 78 -10 9 -37 14 -84 14 l-69 0 0 -590 0 -590
100 0 100 0 0 444 0 444 37 33 c99 86 224 136 319 126 67 -7 151 -51 181 -96
44 -66 46 -87 50 -528 l4 -423 95 0 95 0 -4 443 c-4 471 -4 473 -56 575 -72
141 -264 213 -446 168z"/>
<path d="M11773 2221 c-56 -19 -146 -84 -179 -128 -12 -16 -31 -48 -43 -71
-12 -23 -25 -42 -30 -42 -4 0 -13 50 -18 111 -7 76 -14 114 -24 120 -8 5 -44
9 -81 9 l-68 0 0 -590 0 -590 95 0 95 0 0 377 0 378 28 54 c40 82 125 164 187
182 45 13 74 13 230 6 l40 -2 12 50 c7 28 14 66 15 85 3 34 1 36 -47 52 -65
22 -147 22 -212 -1z"/>
<path d="M6752 1783 c4 -424 4 -440 26 -497 47 -125 101 -188 199 -233 156
-72 332 -39 495 93 38 31 71 54 74 51 3 -2 7 -29 11 -58 9 -88 21 -99 103 -99
l70 0 0 590 0 590 -95 0 -95 0 0 -442 0 -441 -39 -36 c-48 -44 -137 -98 -193
-118 -29 -10 -68 -14 -120 -11 -86 5 -135 30 -182 90 -51 68 -56 116 -56 555
l0 403 -101 0 -100 0 3 -437z"/>
<path d="M1733 2145 c-38 -16 -53 -42 -53 -91 0 -36 11 -49 205 -244 125 -126
205 -213 205 -225 0 -12 -80 -99 -205 -225 -194 -195 -205 -208 -205 -244 0
-52 44 -96 96 -96 36 0 49 11 252 213 117 116 223 230 235 252 28 53 29 155 3
205 -26 47 -410 435 -451 454 -39 19 -41 19 -82 1z"/>
<path d="M2730 1202 c-75 -37 -73 -145 4 -177 28 -12 87 -15 273 -15 272 0
296 5 321 71 12 31 11 41 -2 73 -25 61 -50 66 -323 66 -207 0 -243 -2 -273
-18z"/>
</g>
</svg>
