<?xml version="1.0" standalone="no"?>
<!DOCTYPE svg PUBLIC "-//W3C//DTD SVG 20010904//EN"
 "http://www.w3.org/TR/2001/REC-SVG-20010904/DTD/svg10.dtd">
<svg version="1.0" xmlns="http://www.w3.org/2000/svg"
 width="974.000000pt" height="806.000000pt" viewBox="0 0 974.000000 806.000000"
 preserveAspectRatio="xMidYMid meet">

<g transform="translate(0.000000,806.000000) scale(0.100000,-0.100000)"
fill="#FFFFFF" stroke="none">
<path d="M4779 6615 c-4 -3 -55 -10 -115 -15 -133 -11 -233 -27 -256 -40 -10
-6 -27 -10 -37 -10 -11 0 -22 -4 -25 -9 -4 -5 -24 -12 -46 -16 -22 -4 -42 -11
-46 -16 -3 -5 -14 -9 -25 -9 -10 0 -19 -4 -19 -10 0 -5 -7 -10 -15 -10 -26 0
-225 -112 -263 -148 -8 -6 -23 -17 -34 -23 -33 -18 -59 -41 -158 -139 -100
-100 -127 -131 -157 -177 -9 -15 -20 -30 -23 -33 -23 -20 -115 -191 -169 -311
-22 -51 -46 -62 -156 -74 -33 -3 -69 -10 -80 -15 -11 -4 -47 -16 -80 -26 -33
-9 -67 -21 -75 -25 -8 -4 -42 -20 -75 -36 -33 -15 -62 -30 -65 -33 -3 -3 -39
-27 -80 -55 -116 -77 -304 -271 -326 -337 -4 -10 -9 -18 -13 -18 -4 0 -15 -20
-26 -45 -11 -25 -23 -45 -27 -45 -5 0 -8 -6 -8 -13 0 -13 -19 -59 -41 -99 -5
-10 -9 -25 -9 -33 0 -8 -4 -23 -10 -33 -12 -22 -29 -97 -43 -192 -19 -131 -12
-258 23 -430 10 -51 20 -80 41 -122 5 -10 9 -23 9 -29 0 -22 115 -236 140
-259 3 -3 22 -26 42 -51 51 -64 115 -128 168 -169 25 -19 47 -37 50 -41 26
-32 276 -159 313 -159 9 0 19 -5 22 -10 3 -5 19 -10 34 -10 15 0 31 -4 37 -9
5 -4 71 -16 147 -26 132 -17 140 -17 185 1 26 9 52 22 57 28 35 36 45 64 45
123 0 60 -2 65 -39 102 -34 34 -47 40 -98 45 -118 13 -209 27 -243 38 -155 49
-268 114 -364 211 -90 91 -121 132 -167 227 -23 47 -45 92 -50 101 -4 9 -11
34 -15 55 -3 22 -11 47 -16 57 -16 30 -11 305 7 377 19 78 21 82 74 190 55
112 133 207 245 296 35 29 185 109 231 124 11 4 36 12 55 19 19 7 82 14 140
17 154 7 207 21 252 66 24 24 38 47 38 63 0 14 4 25 9 25 4 0 11 17 13 38 5
34 21 76 67 172 19 40 81 143 91 150 4 3 9 10 11 16 11 30 144 176 205 224
102 80 212 150 238 150 9 0 16 3 16 8 0 8 43 28 83 38 15 3 30 10 33 15 3 5
15 9 28 9 12 0 26 3 30 7 4 4 46 15 94 25 194 40 491 18 647 -47 17 -7 47 -19
68 -26 20 -7 37 -17 37 -21 0 -4 7 -8 16 -8 22 0 179 -99 229 -145 122 -111
168 -159 201 -211 10 -16 26 -37 34 -47 25 -30 99 -171 100 -189 0 -10 3 -18
8 -18 4 0 15 -28 26 -62 59 -199 90 -222 321 -232 129 -5 157 -13 308 -87 48
-23 87 -46 87 -51 0 -4 5 -8 10 -8 11 0 57 -38 121 -100 41 -40 119 -144 119
-160 0 -5 3 -10 8 -10 8 0 42 -73 42 -90 0 -6 4 -10 9 -10 5 0 11 -10 14 -22
3 -13 15 -58 26 -102 16 -60 21 -109 21 -206 0 -97 -5 -146 -21 -206 -11 -44
-23 -89 -26 -101 -3 -13 -9 -23 -14 -23 -5 0 -9 -4 -9 -10 0 -17 -34 -90 -42
-90 -5 0 -8 -5 -8 -10 0 -38 -205 -260 -240 -260 -5 0 -10 -4 -10 -8 0 -5 -39
-28 -87 -51 -49 -24 -96 -47 -105 -52 -10 -5 -27 -9 -37 -9 -11 0 -22 -4 -25
-8 -3 -5 -51 -14 -108 -21 -57 -7 -122 -15 -146 -17 -33 -4 -53 -15 -81 -43
-88 -88 -50 -226 71 -260 38 -11 66 -10 174 4 71 9 138 20 149 25 11 4 47 16
80 26 33 9 67 20 75 24 8 4 29 14 45 21 150 69 321 200 422 327 21 26 40 49
43 52 7 7 29 43 37 60 4 8 9 17 12 20 4 3 15 23 26 45 11 22 23 42 26 45 3 3
14 28 24 55 10 28 22 54 27 60 4 5 8 18 8 30 0 12 4 25 9 31 18 19 53 245 53
344 0 128 -35 317 -73 392 -5 10 -9 24 -9 31 0 28 -120 240 -173 306 -60 73
-191 193 -267 243 -94 62 -247 138 -278 138 -12 0 -24 5 -27 10 -3 6 -17 10
-30 10 -13 0 -26 4 -29 9 -3 4 -38 11 -78 15 -102 10 -148 25 -148 48 0 10 -4
18 -10 18 -5 0 -10 9 -10 19 0 11 -4 22 -9 26 -5 3 -12 19 -16 35 -4 17 -11
30 -16 30 -5 0 -9 6 -9 14 0 11 -19 47 -93 171 -7 11 -14 22 -17 25 -3 3 -25
32 -50 65 -63 85 -237 257 -288 284 -11 6 -26 17 -34 24 -24 23 -141 92 -223
131 -44 21 -87 42 -96 46 -9 5 -33 12 -53 15 -20 4 -39 11 -42 16 -3 5 -18 9
-35 9 -16 0 -29 4 -29 8 0 10 -125 31 -245 42 -49 4 -106 11 -125 14 -19 4
-38 5 -41 1z"/>
<path d="M4500 3723 c-38 -8 -96 -72 -104 -115 -16 -89 -11 -96 340 -448 266
-267 324 -330 324 -353 0 -22 -56 -83 -312 -339 -172 -172 -321 -325 -330
-340 -23 -36 -24 -130 -2 -168 32 -53 105 -78 176 -60 38 11 83 52 383 353
350 352 395 406 395 477 0 16 5 32 10 35 6 3 10 24 10 45 0 21 -4 42 -10 45
-5 3 -10 17 -10 31 0 14 -12 50 -26 81 -22 45 -85 114 -353 381 -180 180 -339
337 -353 349 -27 22 -94 35 -138 26z"/>
<path d="M6130 2201 c-8 -4 -31 -16 -51 -25 -48 -23 -73 -69 -73 -131 0 -62
25 -108 73 -131 20 -9 44 -21 53 -25 29 -15 771 -11 820 4 116 34 160 161 87
250 -52 64 -78 67 -511 66 -211 0 -390 -4 -398 -8z"/>
</g>
</svg>
